<svg xmlns="http://www.w3.org/2000/svg"
    xmlns:xlink="http://www.w3.org/1999/xlink"
    width="312.5" height="328.5830244998806" viewBox="0 0 312.5 328.5830244998806" class="css-1j8o68f"><defs id="SvgjsDefs1001">
    <linearGradient id="SvgjsLinearGradient1015"><stop id="SvgjsStop1016" stop-color="#2d388a" offset="0"></stop><stop id="SvgjsStop1017" stop-color="#00aeef" offset="1"></stop></linearGradient>
    <linearGradient id="SvgjsLinearGradient1018"><stop id="SvgjsStop1019" stop-color="#2d388a" offset="0"></stop><stop id="SvgjsStop1020" stop-color="#00aeef" offset="1"></stop></linearGradient>
    </defs><g id="SvgjsG1007" featurekey="rootContainer" transform="matrix(3.1383286545726086,0,0,3.1383286545726086,0,-0.6276657402674699)" fill="#ffe22a"><g xmlns="http://www.w3.org/2000/svg"><path d="M99.4 43.1c0-.4-.1-.8-.1-1.2l-.2-1.2c-.2-1-.4-2-.7-3l-.4-1.4-.4-1.4-.5-1.6-.2-.8-.3-.8-.6-1.5-.6-1.5a13.7 13.7 0 0 0-.8-1.6l-.4-.7-.2-.3-.2-.3-1.8-2.5c-.9-1.1-1-1-.4.3s1.4 3.2 2.1 4.8l.3.6.2.6.5 1.3.5 1.3.3.7.2.7.6 1.8.4 1.8q.3 1.5.5 3c-.3-.7-.6-1.5-.9-2.1s-1.2-1.6-.9-.1l.2 1.1.3 1.3.2.7.2.7.4 1.5.4 1.5.4 1.4c.2.8.4 1.5.6 2.1s.6 1.9.8.8 0-.5.1-.6a7 7 0 0 0 .4-1.4 15.9 15.9 0 0 0 .1-3.9zM20 11.7l1.2-.7 1.3-.7.7-.4.7-.4 1.4-.9 1.3-.7.9-.5.9-.4.8-.5.8-.4 1.5-.9 1.5-.8.6-.5c.1-.1.2-.3.2-.3l-.6-.2-1.2.1-1.7.5-1 .4-1 .5-1.3.8-.4.2-.4.3-.8.5-.8.5-.8.6-1.1.8-1 .8-.9.8-.8.8c-1.1.9-.9 1.3 0 .7zM26.7 92l-1-.8-1.4-1.1-.7-.5-.7-.5-1.5-1.1-1.4-1-.4-.3-.3-.3-.7-.5-.7-.5-.7-.5-1.2-1.1-1.3-1.1-.4-.3-.9-.6.2.4.6.9.5.6.5.7.2.3.3.3 1.2 1.4 1.5 1.4.4.3.4.3.9.7.7.6.8.5 1.6.9 1.6.8 1.6.7c.7.3 1.2.4 1.2.3l-.2-.2-.3-.2zM6.1 29.8l.6-.9.7-1.1.4-.6.4-.6.8-1.3.8-1.3.7-1.2 1.2-2.1c.3-.6.4-1 .2-1l-.4.2-.3.3-.4.4-.8.9-.4.5-.4.5-.7 1-.7 1A37.7 37.7 0 0 0 5.6 29c-.6 1.8-.4 2 .5.8zM64.6 3a33.2 33.2 0 0 1 7.5 3.3l1.3.7 1.2.7 1 .6.8.5 1.2.6c.1 0 .1 0 0-.1l-.3-.4-1.4-1.3L74 6.5l-.8-.4-.8-.4-.8-.4-.8-.3-1.6-.7-1.6-.8-1.3-.5-1.5-.5c-.8-.2-1.6-.4-1.7-.2s.4.4 1.5.7zM46.8.5h3.7L50 .2h-3.2a1.8 1.8 0 0 0-.9.4z"></path><path d="M16.4 89.4a3.6 3.6 0 0 0-.6-1.1l-.6-.8-.8-.9-.9-1-.9-1-.4-.5-.2-.3-.2-.3-.8-1.1-.4-.5-.4-.5-.7-1.1-.4-.5-.3-.6-.6-1.1-.2-.3-.2-.3-.3-.7-.3-.7-.3-.7c-.4-.9-.8-1.8-1.2-2.8l-.5-1.4-.5-1.4-.2-.7-.2-.7-.4-1.4q-.6-2-1-4v.2l.4 1.4.5 1.8.8 2.2.4.7.4.7.8 1.5.9 1.5 1 1.5c.4.6.5.5.2-.3l-.3-.8-.4-.9-.8-1.8-.8-1.9-.2-.5-.2-.5-.4-1-.3-.6-.2-.6-.5-1.3a48.8 48.8 0 0 1-1.9-9.2v-.3c0-.5 0-1.1.1-1.6A76 76 0 0 1 4 43.3 52.2 52.2 0 0 1 7 34c.4-.9.8-1.7 1.2-2.6l.8-1.2.7-1.2.8-1.2.8-1.2c.6-.7 1.2-1.5 1.8-2.2l.7-.8.4-.4.4-.4.8-.8.4-.4.2-.2.2-.2 1.7-1.5 1.8-1.5 1.2-1.1.6-.6.7-.5 1.4-1.1L25 14l.3-.3.3-.2.5-.3.3-.4c0-.1-.5 0-1.5.4l-1.3.6a35.5 35.5 0 0 0-7 5.1l-1 1.1-.5.6-.5.6-1 1.1-1 1.2c-1.3 1.6-2.5 3.3-3.7 5L8 29.6l-.4.5-.2.3-.2.3-.7 1.1-.7 1.1-.6 1-.3.5-.3.5-.9 1.9-.8 1.9-.2.5-.2.5-.3.8v-.8l.2-1.1v-.7l-.2.7-.3 1.1.1 1.2-.2 1.1-.2 1.1-.2 1.3-.4 1.7c-.3 1.2-.5 2.4-.6 3.6S.2 52 .1 53.2 0 55.6 0 56.8a40.4 40.4 0 0 0 1 7.9 50.2 50.2 0 0 0 2.4 7.8l.8 1.9.9 1.8.2.5.2.4.5.9.5.9.5.9.6 1.1a28.1 28.1 0 0 0 7.5 8.1c.7.5 1.5 1 1.3.4z"></path><path d="M39.7 103.2l-4.9-1.9-.6-.3-.6-.3-1.3-.6-1.3-.6-.7-.3-.7-.3-1.7-.9-1.5-.9a76.3 76.3 0 0 1-6.8-5.1l-1.7-1.5c-1.3-1.1-2-1.1-1.3-.1l.4.5a6.8 6.8 0 0 0 .7 1.2l1.2 1.4 1.6 1.4.9.7 1 .7 2.4 1.7 1.3.8 1.3.7 1.4.8.7.4.7.3 1.5.7 1.5.6 1.7.6.8.2h.8l2.9.4c1.6.3 1.6.1.3-.3zM62.3 8.4l.9.3.8.3 1.8.7 1.9.7.5.2.5.2 1 .4.6.2.6.3 1.2.6a48.6 48.6 0 0 1 7.9 5.1l1.3 1.1.6.6.6.6 1.2 1.2.3.3.3.3.6.6a37.1 37.1 0 0 1 2.6 2.7l2.4 2.9.7.9.7.9.5.5-.3-.7-.6-1-.7-1-.6-1-.6-.9a38.9 38.9 0 0 0-7-7.8l-.5-.5-.6-.4-1.1-.8-.6-.4-.6-.4-1.2-.8-1.2-.7-1.2-.7-1.3-.7-1.3-.7-1.4-.9-2.1-1-.7-.2-.8-.2-1.6-.4-1.8-.5-1.8-.3c-.8-.2-.7 0 .1.4zm36.3 51.8a26.8 26.8 0 0 0 .2-9.2c-.2-.9-.4-1.7-.7-1.2a3.5 3.5 0 0 0-.4 1.2c0 .3-.1.6-.1 1s-.1.7-.1 1.2 0 .9-.1 1.3v2.7l-.2 1.4v1.3l-.2 1.3v.6l-.2.6-.8 1.1v.7l-.3.7-.3.7-.3.7c-.4.9-.7 1.9-1.1 2.8l-.6 1.4-.6 1.3-.3.7-.3.7-.7 1.3a42.9 42.9 0 0 1-3.9 5.8 38.5 38.5 0 0 1-4.9 5 76.1 76.1 0 0 1-8.5 5.7 52.1 52.1 0 0 1-8.7 4.4l-2.7.9-1.4.4-1.4.3-1.4.3-1.4.2-2.9.2h-6.5l-2.3-.3h-3.4l-1.8-.2-1.7-.3h-1.9c-.1.1.4.4 1.3.8l1.3.5a35.5 35.5 0 0 0 8.7 1h6.2c2.1-.2 4.1-.5 6.2-.9l1.4-.3H63l1.2-.2 1.2-.3 1.1-.3h.6l.6-.2 1.9-.7 1.9-.8.5-.2.5-.2.9-.5.5-.2h.5l.9-.5 1.5-.9 1.5-.9 2.9-2.1 2.8-3.1 2.6-2.5a40.3 40.3 0 0 0 4.9-6.3 50.4 50.4 0 0 0 3.8-7.2l.8-1.9.7-1.9.2-.5v-.2l-.4 1.6-.3 1-.3.9-.3.9-.3.9-.4 1.7-.4 1.6a3.5 3.5 0 0 0-.1.7c0 .2 0 .3.1.4s.3-.1.6-.3l.8-1a10.6 10.6 0 0 0 .9-1.5l.4-1 .4-1 .4-1.5v-1l.2-1 .2-1 .2-1 .2-1.3v-1.2c0-.4.1-.8.1-1.2V61c0-.3-.1-1.3-.4-.8zM35.9 8.9h.8l1.3-.2 1.8-.2h1.8l1.7-.3 1.7-.5h3.4l1.7-.2h2.2l1.1-.2H53l-1-.9h-9.3l-.9.2L40 7l-1.7.6-1.6.7c-.7.3-1.1.5-1.1.6zm37.4 89.5a33.3 33.3 0 0 1-7.6 3l-1.4.4-1.3.4-1.1.3-.9.2-1.3.5c-.1.1 0 .1.1.1h.6l1.8-.2 2.1-.6.8-.3.8-.3.8-.3.8-.3 1.7-.6 1.7-.6 1.3-.6 1.4-.7c.8-.4 1.4-.9 1.3-1.1s-.6.2-1.6.7zm14.3-10.9l-.7.7-.9.8-.4.6-.2.3v.3l.5-.2.5-.3a14.4 14.4 0 0 0 1.8-1.9 1.8 1.8 0 0 0 .3-.9z"></path><circle cx="43.8" cy="103.1" r=".6"></circle><circle cx="48.7" cy="104.5" r=".4"></circle><circle cx="31.8" cy="95.1" r=".3"></circle><circle cx="47.3" cy="102.2" r=".3"></circle><circle cx="76.6" cy="96.5" r=".5"></circle><circle cx="80" cy="95.1" r=".9"></circle><circle cx="82.8" cy="92.2" r=".4"></circle><circle cx="90.5" cy="85.3" r=".7"></circle><circle cx="92.4" cy="81.3" r=".4"></circle><circle cx="93.9" cy="78.4" r=".3"></circle><circle cx="43.2" cy="1.6" r=".4"></circle><circle cx="36.8" cy="2.1" r=".4"></circle><circle cx="40.5" cy="3.7" r=".3"></circle><circle cx="55.7" cy="1" r=".4"></circle><circle cx="60.1" cy="1.7" r=".4"></circle><circle cx="79.5" cy="10.5" r=".5"></circle><circle cx="82.1" cy="13.7" r=".3"></circle><circle cx="85.9" cy="16.3" r=".5"></circle><circle cx="87" cy="18.7" r=".2"></circle><circle cx="84.4" cy="14.2" r=".2"></circle><circle cx="18" cy="13.7" r=".3"></circle><circle cx="12.6" cy="19.3" r=".6"></circle></g></g><g id="SvgjsG1008" featurekey="symbolFeature-0" transform="matrix(1.7532467532467533,0,0,1.7532467532467533,116,65)" fill="#f2c00f"><g xmlns="http://www.w3.org/2000/svg"><g><path d="M16,18c0.225,0,0.451-0.075,0.637-0.23c0.425-0.352,0.485-0.982,0.132-1.408C16.042,15.484,15.059,15,14,15    s-2.042,0.484-2.77,1.362c-0.353,0.425-0.293,1.056,0.132,1.408c0.425,0.353,1.056,0.292,1.408-0.132    c0.682-0.822,1.778-0.822,2.46,0C15.428,17.876,15.713,18,16,18z"></path><path d="M26,15c-1.059,0-2.042,0.484-2.77,1.362c-0.353,0.425-0.293,1.056,0.132,1.408c0.425,0.353,1.055,0.292,1.408-0.132    c0.682-0.822,1.778-0.822,2.46,0C27.428,17.876,27.713,18,28,18c0.225,0,0.451-0.075,0.637-0.23    c0.425-0.352,0.485-0.982,0.132-1.408C28.042,15.484,27.059,15,26,15z"></path><path d="M24.305,20.781c-2.374,2.292-6.236,2.292-8.61,0c-0.397-0.383-1.03-0.372-1.414,0.024    c-0.384,0.397-0.373,1.03,0.024,1.414c1.57,1.516,3.632,2.274,5.695,2.274s4.125-0.758,5.695-2.274    c0.397-0.384,0.408-1.017,0.024-1.414C25.336,20.409,24.703,20.397,24.305,20.781z"></path><path d="M4.063,28.347l-1.848,0.765c-0.51,0.211-0.752,0.796-0.541,1.307c0.159,0.385,0.532,0.618,0.924,0.618    c0.127,0,0.257-0.025,0.382-0.077l1.848-0.765c0.51-0.211,0.752-0.796,0.541-1.307C5.159,28.378,4.575,28.136,4.063,28.347z"></path><path d="M39.554,15.729c0.128,0,0.258-0.025,0.383-0.077l1.848-0.765c0.51-0.211,0.752-0.796,0.541-1.307    c-0.211-0.51-0.798-0.75-1.307-0.541l-1.848,0.765c-0.51,0.211-0.752,0.796-0.541,1.307    C38.789,15.497,39.162,15.729,39.554,15.729z"></path><path d="M15.112,38.63c-0.513-0.211-1.096,0.031-1.307,0.541l-0.765,1.848c-0.211,0.51,0.031,1.095,0.541,1.307    c0.125,0.052,0.255,0.077,0.382,0.077c0.393,0,0.765-0.233,0.924-0.618l0.765-1.848C15.864,39.426,15.622,38.841,15.112,38.63z"></path><path d="M28.888,5.37c0.125,0.052,0.255,0.077,0.382,0.077c0.393,0,0.765-0.233,0.924-0.618l0.765-1.848    c0.211-0.51-0.031-1.095-0.541-1.307c-0.512-0.212-1.096,0.031-1.307,0.541l-0.765,1.848C28.136,4.574,28.378,5.159,28.888,5.37z"></path><path d="M30.195,39.171c-0.211-0.51-0.794-0.752-1.307-0.541c-0.51,0.211-0.752,0.796-0.541,1.307l0.765,1.848    c0.159,0.385,0.532,0.618,0.924,0.618c0.127,0,0.257-0.025,0.382-0.077c0.51-0.211,0.752-0.796,0.541-1.307L30.195,39.171z"></path><path d="M13.805,4.829c0.159,0.385,0.532,0.618,0.924,0.618c0.127,0,0.257-0.025,0.382-0.077c0.51-0.211,0.752-0.796,0.541-1.307    l-0.765-1.848c-0.211-0.51-0.795-0.753-1.307-0.541c-0.51,0.211-0.752,0.796-0.541,1.307L13.805,4.829z"></path><path d="M41.784,29.112l-1.848-0.765c-0.508-0.211-1.096,0.031-1.307,0.541s0.031,1.095,0.541,1.307l1.848,0.765    c0.125,0.052,0.255,0.077,0.383,0.077c0.392,0,0.765-0.233,0.924-0.618C42.536,29.909,42.294,29.324,41.784,29.112z"></path><path d="M2.216,14.888l1.848,0.765c0.125,0.052,0.255,0.077,0.382,0.077c0.393,0,0.765-0.233,0.924-0.618    c0.211-0.51-0.031-1.095-0.541-1.307L2.981,13.04c-0.512-0.212-1.096,0.031-1.307,0.541C1.463,14.091,1.706,14.676,2.216,14.888z"></path><path d="M43.394,21.081l-4.217-1.808c-0.256-0.11-0.433-0.349-0.515-0.646c-0.44-2.175-1.3-4.198-2.485-5.988    c-0.17-0.278-0.21-0.587-0.102-0.856l1.704-4.26c0.149-0.372,0.062-0.796-0.221-1.079c-0.283-0.283-0.707-0.37-1.079-0.221    l-4.26,1.703c-0.268,0.108-0.577,0.068-0.853-0.1c-1.79-1.187-3.814-2.047-5.99-2.487c-0.299-0.082-0.538-0.259-0.648-0.516    l-1.808-4.217C22.762,0.238,22.4,0,22,0s-0.762,0.238-0.919,0.606l-1.808,4.217c-0.11,0.256-0.349,0.433-0.646,0.515    c-2.175,0.44-4.198,1.3-5.988,2.485c-0.278,0.17-0.587,0.21-0.856,0.102l-4.26-1.704C7.151,6.073,6.726,6.161,6.444,6.444    c-0.283,0.283-0.37,0.707-0.221,1.079l1.703,4.26c0.107,0.268,0.068,0.576-0.1,0.852c-1.187,1.79-2.047,3.814-2.487,5.99    c-0.082,0.299-0.259,0.538-0.516,0.648l-4.217,1.808C0.238,21.238,0,21.6,0,22s0.238,0.762,0.606,0.919l4.217,1.808    c0.256,0.11,0.433,0.349,0.515,0.646c0.44,2.175,1.3,4.198,2.485,5.988c0.17,0.278,0.21,0.587,0.102,0.856l-1.704,4.26    c-0.149,0.372-0.062,0.796,0.221,1.079s0.707,0.37,1.079,0.221l4.26-1.703c0.268-0.107,0.576-0.068,0.852,0.1    c1.79,1.187,3.814,2.047,5.99,2.487c0.299,0.082,0.538,0.259,0.648,0.516l1.808,4.217C21.238,43.762,21.6,44,22,44    s0.762-0.238,0.919-0.606l1.808-4.217c0.11-0.256,0.349-0.433,0.646-0.515c2.176-0.44,4.199-1.3,5.988-2.486    c0.277-0.17,0.586-0.209,0.856-0.102l4.26,1.704c0.372,0.149,0.796,0.062,1.079-0.221s0.37-0.707,0.221-1.079l-1.703-4.26    c-0.107-0.268-0.068-0.576,0.1-0.852c1.187-1.79,2.047-3.814,2.487-5.99c0.082-0.299,0.259-0.538,0.516-0.648l4.217-1.808    C43.762,22.762,44,22.4,44,22S43.762,21.238,43.394,21.081z M22,37c-8.271,0-15-6.729-15-15S13.729,7,22,7s15,6.729,15,15    S30.271,37,22,37z M35.055,8.945l-0.606,1.516c-0.292-0.315-0.595-0.618-0.91-0.91L35.055,8.945z M22,3.538l0.641,1.494    C22.426,5.024,22.216,5,22,5c-0.216,0-0.427,0.024-0.641,0.032L22,3.538z M8.945,8.945l1.516,0.606    c-0.315,0.292-0.618,0.595-0.91,0.91L8.945,8.945z M3.538,22l1.494-0.641C5.024,21.574,5,21.784,5,22    c0,0.216,0.024,0.427,0.032,0.641L3.538,22z M8.945,35.055l0.606-1.516c0.292,0.315,0.595,0.618,0.91,0.91L8.945,35.055z     M22,40.462l-0.641-1.494C21.574,38.976,21.784,39,22,39c0.216,0,0.427-0.024,0.641-0.032L22,40.462z M35.055,35.055l-1.516-0.606    c0.315-0.292,0.618-0.595,0.91-0.91L35.055,35.055z M38.968,22.641C38.976,22.426,39,22.216,39,22    c0-0.216-0.024-0.427-0.032-0.641L40.462,22L38.968,22.641z"></path></g></g></g><g id="SvgjsG1009" featurekey="nameFeature-0" transform="matrix(1.0941957337452595,0,0,1.0941957337452595,56.01164280817185,168.68125972756638)" fill="url(#SvgjsLinearGradient1015)"><path d="M13.08 32.68 c-0.04 1.4 -0.68 3.64 -1.52 4.8 c-0.8 1.12 -2.04 2.68 -4.4 2.68 c-2.2 0 -4.12 -1.12 -6.76 -0.28 c1.2 -1.52 1.48 -4.12 1.24 -5.8 c1.24 0.76 3.48 1.52 5.16 0.72 c1.16 -0.56 1.68 -2.44 1.48 -3.4 c-0.48 -2.56 -7.56 -4.88 -8.16 -8.76 c-0.08 -0.48 -0.16 -1 -0.12 -1.48 c0.08 -1.88 0.84 -3.8 2.24 -5.12 c1.36 -1.32 3.92 -2 5.8 -1.84 c1.8 0.16 3.48 1.12 5.2 0.8 c-1.32 1.2 -1.96 3.72 -1.72 5.72 c-0.72 -0.8 -2.52 -1.56 -3.12 -1.6 c-1.08 -0.08 -2.48 0.48 -2.92 1.56 c-0.04 0.12 -0.12 0.32 -0.12 0.48 c0 3.24 7.84 4.84 7.72 11.52 z M27.061 20.44 c0.32 1.92 0.24 3.96 -0.64 5.72 c-0.64 1.24 -1.76 2.32 -3.12 2.76 c-0.36 0.12 -2.24 0.44 -3.28 0.24 c-0.28 3.56 -0.32 7.44 1.48 10.72 c-1.68 -0.68 -5.44 -0.64 -6.92 0.4 c1.44 -8.6 1.36 -17.48 -0.24 -26.08 c2.6 0.88 5.56 -0.12 7.68 -0.12 c1.96 0 4.28 1.28 5.04 6.36 z M22.221 22.72 c0.12 -0.8 0 -4.56 -2.16 -4.24 c-0.2 1.56 -0.2 4.56 0.04 6.16 c0.76 0.08 1.52 -0.36 1.88 -1.04 c0.12 -0.28 0.2 -0.56 0.24 -0.88 z M27.722 40.08 c1.6 -8.6 1.68 -17.44 0.24 -26.08 c0.04 0.4 1.76 0.6 2 0.64 c1 0.16 2 0.28 3 0.28 c2.04 0.08 4.04 -0.16 6 -0.68 c-0.88 1.88 -0.92 4.16 -0.2 6.12 c-1.48 -0.56 -3.08 -0.72 -4.64 -0.52 c-0.24 0.04 -0.44 0.08 -0.6 0.2 c-0.2 0.16 -0.32 0.36 -0.4 0.6 c-0.52 1.4 -0.68 2.92 -0.44 4.4 c0 0.16 0.04 0.28 0.12 0.4 c0.12 0.12 0.28 0.12 0.44 0.16 c1.44 0.12 3.12 -0.16 4.44 -0.72 c-0.56 1.8 -0.6 4 0.04 5.68 c-1.44 -0.52 -2.72 -0.96 -4.16 -0.6 c-0.16 0.04 -0.28 0.08 -0.4 0.16 c-0.08 0.08 -0.16 0.24 -0.2 0.36 c-0.48 1.56 -0.44 3.28 0.12 4.8 c0.08 0.2 0.16 0.44 0.36 0.56 c0.64 0.4 2.16 0.2 2.92 0.12 c1.12 -0.08 2.28 -0.36 3.32 -0.8 c-0.68 1.56 -0.6 3.64 0.28 5.12 c-1.72 -0.56 -8 -1.16 -12.24 -0.2 z M54.543 14.079999999999998 c-0.08 2.92 -0.16 18.04 3.72 25.88 c-2.44 -0.72 -4.68 -1 -6.76 0.28 c0.24 -1.08 0.4 -3.24 0.2 -4.32 c-0.16 -0.64 -0.32 -1.36 -0.8 -1.8 c-0.44 -0.4 -1.04 -0.72 -1.48 -0.44 c-2.12 1.4 -1.16 5.52 -1.08 6.28 c-1.64 -0.68 -4.8 -0.8 -7.12 0 c2.16 -6.2 3.52 -18.24 3.24 -25.88 c1.04 0.68 7.8 0.92 10.08 0 z M51.103 28.2 c0.08 -0.4 0.16 -0.8 0.12 -1.2 c0 -0.44 0 -0.88 -0.04 -1.28 c-0.08 -1 -0.12 -1.96 -0.36 -2.92 c-0.2 -0.64 -0.4 -1.4 -0.88 -1.88 c-0.72 -0.68 -1.12 0.52 -1.28 1.12 c-0.32 1.16 -0.44 2.36 -0.52 3.56 c-0.04 0.96 -0.04 1.88 0.04 2.84 c0 0.2 0 0.4 0.12 0.6 c0.4 0.64 1.52 0.44 2.08 0.2 c0.16 -0.08 0.36 -0.2 0.48 -0.32 c0.16 -0.2 0.2 -0.48 0.24 -0.72 z M67.044 27.52 c1.16 2.52 3.76 5.24 7.04 6.6 c-2.12 1 -3.32 3.12 -3.92 5.44 c-0.72 -2.32 -3.24 -5.04 -4.76 -6.32 c-0.32 1.72 0.08 5.56 0.72 6.8 c-2.08 -0.72 -4.88 -0.32 -6.4 0.24 c1.28 -5 1.68 -20.68 -0.2 -25.88 c1.4 0.32 5.24 0.28 6.6 -0.4 c-0.36 2.36 -0.6 5.08 -0.76 7.96 c2.2 -2 3.52 -3.68 4.44 -6.84 c0.28 2.12 1.88 4.96 3.84 6.16 c-2.64 1.24 -5.72 4.08 -6.6 6.24 z M83.726 14.2 c4.24 0.96 10.52 0.36 12.24 -0.2 c-0.88 1.48 -0.96 3.96 -0.28 5.52 c-1.8 -0.76 -4.08 -0.64 -5.96 -0.2 c-0.16 0.04 -0.36 0.08 -0.48 0.2 c-0.12 0.08 -0.2 0.24 -0.24 0.36 c-0.64 1.4 -0.16 4.44 0 4.48 c1.04 0.44 3.16 0.32 4.72 -0.64 c-0.64 1.68 -0.48 4.32 0.36 5.84 c-1.6 -0.72 -3.44 -0.72 -5.28 -0.4 c0.12 3.76 0.28 7.44 2.08 10.72 c-1.68 -0.68 -5.44 -0.64 -6.92 0.4 c1.44 -8.6 1.36 -17.48 -0.24 -26.08 z M110.70700000000001 18.92 c0.84 2.32 1 5.12 0.96 7.4 s-0.04 4.48 -0.56 6.68 c-0.32 1.24 -0.76 2.48 -1.4 3.56 c-1.44 2.36 -4.04 3.76 -6.8 3.4 c-2.68 -0.36 -4.76 -2.32 -5.88 -4.68 c-1.08 -2.24 -1.08 -4.88 -1.04 -7.4 c0.04 -2.24 0.04 -4.44 0.56 -6.64 c0.68 -2.84 2.92 -7.16 7.92 -7.2 c3.64 -0.04 5.52 2.92 6.24 4.88 z M101.787 33.24 c0 0.08 0.04 0.12 0.08 0.2 c0.32 0.6 0.68 1.2 1.2 1.64 c0.48 0.48 0.96 0.44 1.52 0 c0.52 -0.4 0.88 -0.96 1.16 -1.56 c1.2 -2.4 1.16 -5.08 1.12 -7.72 c-0.04 -1.72 -1 -6.24 -2.92 -6.2 c-2.52 0 -3.2 6.76 -3.16 8.84 c0.04 1.68 0.24 3.32 1 4.8 z M121.64800000000001 27.880000000000003 c0.2 1 0.92 6.68 4.24 10.44 c-1.96 0 -4.88 0.72 -5.8 2 c-0.44 -4.4 -0.92 -8.44 -2.44 -10.4 c-0.24 3.32 -0.12 6.92 1.52 9.96 c-1.68 -0.68 -5.44 -0.64 -6.92 0.4 c1.44 -8.6 1.36 -17.48 -0.24 -26.08 c2.6 0.88 5.56 -0.12 7.68 -0.12 c1.96 0 4.84 1.28 5.64 6.36 c0.28 1.92 -0.44 6.88 -3.68 7.44 z M117.888 24.68 c1.96 -0.08 2.2 -3.52 2.08 -4.32 c-0.08 -0.28 -0.12 -0.6 -0.28 -0.88 c-0.36 -0.64 -1.12 -1.08 -1.88 -1 c-0.2 1.6 -0.16 4.6 0.08 6.2 z M135.53000000000003 14.2 c4.24 0.96 10.52 0.36 12.24 -0.2 c-0.88 1.48 -0.96 3.96 -0.28 5.52 c-1.8 -0.76 -4.08 -0.64 -5.96 -0.2 c-0.16 0.04 -0.36 0.08 -0.48 0.2 c-0.12 0.08 -0.2 0.24 -0.24 0.36 c-0.64 1.4 -0.16 4.44 0 4.48 c1.04 0.44 3.16 0.32 4.72 -0.64 c-0.64 1.68 -0.48 4.32 0.36 5.84 c-1.6 -0.72 -3.44 -0.72 -5.28 -0.4 c0.12 3.76 0.28 7.44 2.08 10.72 c-1.68 -0.68 -5.44 -0.64 -6.92 0.4 c1.44 -8.6 1.36 -17.48 -0.24 -26.08 z M163.03100000000003 38.08 c-0.32 0.56 -0.72 1.12 -1.24 1.48 c-1.32 0.88 -3.64 0.8 -5.16 0.72 c-1.24 -0.08 -2.96 -0.16 -4.04 -0.84 c-1 -0.64 -1.64 -1.76 -2 -2.92 c-0.32 -1.16 -0.4 -2.36 -0.48 -3.56 c-0.12 -2.76 0.08 -15.84 -1.08 -18.68 c2.4 0.68 5.56 0.28 7.28 -0.28 c-1.12 3.96 -1.64 12.72 -0.8 19.56 c0.32 2.72 2.24 2.76 2.8 2.2 c0.56 -0.52 0.8 -1.28 0.92 -2.08 c0.08 -0.68 0.08 -1.4 0.12 -2.12 c0.12 -6.32 0 -12.92 -0.92 -17.28 c2.4 0.68 5.6 0.28 7.32 -0.28 c-0.2 0.08 -0.68 3.32 -0.76 4.12 c-0.64 6.52 -0.32 12.84 -0.92 16.6 c-0.16 1 -0.36 2 -0.8 2.92 c-0.08 0.12 -0.16 0.28 -0.24 0.44 z M182.77200000000002 14.2 c-1.24 6.16 -1.16 19.32 0 25.84 c-1.72 -0.6 -5 -0.76 -6.84 0.12 c0.56 -1.6 0.44 -3.36 -0.04 -4.96 c-0.48 -1.72 -3.08 -5.64 -3.56 -6.32 c0.04 4.48 0.44 8.76 1.24 11 c-1.44 -0.68 -4.76 -0.64 -6.04 0.4 c1.08 -8.44 1 -19.64 -0.52 -26 c1.6 0.84 5.36 0.08 6.36 -0.28 c-0.48 2.96 0.48 6.96 1.52 9.24 c0.68 1.6 1.56 3.12 2.56 4.52 c0.12 -5.64 -0.2 -10.52 -1.24 -13.36 c1.44 0.72 5.28 0.84 6.56 -0.2 z"></path></g><g id="SvgjsG1010" featurekey="sloganFeature-0" transform="matrix(1.1904762270996292,0,0,1.1904762270996292,96.64285690480479,238.023810497993)" fill="url(#SvgjsLinearGradient1018)"><path d="M9.66 19.08 l-0.44 0.52 l-0.72 0.08 l-0.2 0.74 c-2.46 -1.06 -6.88 -4.04 -8 -4.92 l0.38 -1.18 l1.24 -0.08 l0.04 -0.86 c1.6 1.26 3.24 2.28 4.96 3.36 c-0.06 -3.64 -0.22 -9.08 -0.32 -11.2 l0.72 -0.42 l0.64 0.78 l0.78 -0.58 l0.56 0.08 c0.12 2.62 0.28 10.36 0.36 13.68 z M20.46 5.5600000000000005 l0.22 14.36 l-0.98 -0.36 l-1.12 0.62 l-0.6 -0.22 l-0.02 -1.16 l-5.22 1.64 l-0.1 -0.86 l-0.68 -0.02 l0.12 -1.12 l-0.7 -0.06 l0.26 -12.5 l0.6 -0.38 l1.02 0.64 l1.08 -0.52 l-0.26 11.66 l3.84 -1.24 l-0.16 -10.46 l0.56 -0.24 l0.78 0.8 l0.6 -0.48 z M32.22 17.14 c-1.02 2.5 -3.68 3.3 -5.4 3.3 c-2.46 0 -4.44 -1.3 -5 -1.74 l0.22 -0.64 l0.58 -0.4 l-0.46 -0.76 l0.46 -0.68 c0.76 0.6 2.14 1.52 4.12 1.52 c1.54 0 3.18 -0.98 3.38 -2.52 c-1.96 -1.02 -7.1 0.24 -7.58 -3.02 c-0.4 -2.7 4.48 -6.8 6.36 -7.18 l0.28 0.68 l0.74 0.04 l0.24 0.62 l0.68 0.38 l-0.08 3.78 l-0.88 0.3 l-1.06 -0.7 l-0.58 0.32 l0.06 -2.26 c-1.28 0.52 -2.36 1.8 -3.12 3.5 c1.54 0.48 4.38 0.36 6.1 1.22 c1.28 0.64 1.96 1.76 0.94 4.24 z M40.84 6.119999999999999 l0.62 0.62 l-0.42 0.7 l0.26 0.72 l-3.32 0.24 l0.1 11.44 l-0.64 -0.04 l-0.62 0.38 l-0.7 -0.7 l-0.74 0.38 l-0.1 -11.26 l-2.6 0.18 l-0.28 -0.98 l0.32 -0.98 l-0.44 -0.74 l8.82 -0.62 z M58.480000000000004 17.14 c-1.02 2.5 -3.68 3.3 -5.4 3.3 c-2.46 0 -4.44 -1.3 -5 -1.74 l0.22 -0.64 l0.58 -0.4 l-0.46 -0.76 l0.46 -0.68 c0.76 0.6 2.14 1.52 4.12 1.52 c1.54 0 3.18 -0.98 3.38 -2.52 c-1.96 -1.02 -7.1 0.24 -7.58 -3.02 c-0.4 -2.7 4.48 -6.8 6.36 -7.18 l0.28 0.68 l0.74 0.04 l0.24 0.62 l0.68 0.38 l-0.08 3.78 l-0.88 0.3 l-1.06 -0.7 l-0.58 0.32 l0.06 -2.26 c-1.28 0.52 -2.36 1.8 -3.12 3.5 c1.54 0.48 4.38 0.36 6.1 1.22 c1.28 0.64 1.96 1.76 0.94 4.24 z M67.10000000000001 6.119999999999999 l0.62 0.62 l-0.42 0.7 l0.26 0.72 l-3.32 0.24 l0.1 11.44 l-0.64 -0.04 l-0.62 0.38 l-0.7 -0.7 l-0.74 0.38 l-0.1 -11.26 l-2.6 0.18 l-0.28 -0.98 l0.32 -0.98 l-0.44 -0.74 l8.82 -0.62 z M72.02000000000001 14.719999999999999 l2.64 -0.28 l-1.34 -5.08 z M75.06000000000002 5.26 l3.88 14.58 l-0.64 -0.04 l-0.38 0.48 l-1.04 -0.56 l-0.66 0.58 l-0.86 -3.22 l-4.02 0.42 l-0.68 2.8 l-0.92 0.1 l-1.02 -0.72 l-0.76 0.16 l2.84 -11.56 l-1.4 0.08 l0.1 -0.68 l-0.42 -0.62 l0.5 -0.92 l-0.42 -0.46 z M85.38000000000001 11.88 c3.18 -2.06 1.18 -4.24 -1.66 -4 c-0.34 0.02 -0.76 0.06 -1.2 0.1 l0.18 5.6 c0.9 -0.54 1.76 -1.1 2.68 -1.7 z M86.98000000000002 14.14 l2.48 5.3 l-0.52 0.56 l-1.38 0 l-0.52 0.62 l-2.36 -4.98 c-0.6 0.36 -1.24 0.7 -1.88 1.02 l0.12 3.26 l-0.78 -0.02 l-0.54 0.44 l-0.72 -0.68 l-0.66 0.36 l-0.4 -11.8 c-0.48 0.06 -0.78 0.08 -0.78 0.08 l0.3 -0.82 l-0.62 -0.8 l0.3 -0.46 l-0.28 -0.6 s3.34 -0.46 5.22 -0.44 c2.26 0.02 4.54 0.4 5.46 2.58 c1.08 2.58 -0.22 4.66 -2.44 6.38 z M98.88000000000001 6.119999999999999 l0.62 0.62 l-0.42 0.7 l0.26 0.72 l-3.32 0.24 l0.1 11.44 l-0.64 -0.04 l-0.62 0.38 l-0.7 -0.7 l-0.74 0.38 l-0.1 -11.26 l-2.6 0.18 l-0.28 -0.98 l0.32 -0.98 l-0.44 -0.74 l8.82 -0.62 z"></path></g></svg>
