<svg xmlns="http://www.w3.org/2000/svg" 
  xmlns:xlink="http://www.w3.org/1999/xlink" width="403.11021291965244" height="83.04291971752065" viewBox="0 0 403.11021291965244 83.04291971752065" class="css-1j8o68f">
  <defs id="SvgjsDefs1001">
    <linearGradient id="SvgjsLinearGradient1015">
      <stop id="SvgjsStop1016" stop-color="#8f5e25" offset="0"></stop>
      <stop id="SvgjsStop1017" stop-color="#fbf4a1" offset="0.5"></stop>
      <stop id="SvgjsStop1018" stop-color="#8f5e25" offset="1"></stop>
    </linearGradient>
    <linearGradient id="SvgjsLinearGradient1019">
      <stop id="SvgjsStop1020" stop-color="#8f5e25" offset="0"></stop>
      <stop id="SvgjsStop1021" stop-color="#fbf4a1" offset="0.5"></stop>
      <stop id="SvgjsStop1022" stop-color="#8f5e25" offset="1"></stop>
    </linearGradient>
    <linearGradient id="SvgjsLinearGradient1023">
      <stop id="SvgjsStop1024" stop-color="#8f5e25" offset="0"></stop>
      <stop id="SvgjsStop1025" stop-color="#fbf4a1" offset="0.5"></stop>
      <stop id="SvgjsStop1026" stop-color="#8f5e25" offset="1"></stop>
    </linearGradient>
    <linearGradient id="SvgjsLinearGradient1027">
      <stop id="SvgjsStop1028" stop-color="#8f5e25" offset="0"></stop>
      <stop id="SvgjsStop1029" stop-color="#fbf4a1" offset="0.5"></stop>
      <stop id="SvgjsStop1030" stop-color="#8f5e25" offset="1"></stop>
    </linearGradient>
  </defs>
  <g id="SvgjsG1009" featurekey="inlineSymbolFeature-0" transform="matrix(4.8775450119125489,0,0,5.0775450119125489,0.2075456178076,-250.8877250595627446)" fill="url(#SvgjsLinearGradient1023)">
    <g xmlns="http://www.w3.org/2000/svg">
      <g>
        <path d="M38.126,76.032c3.149,6.9,8.575,11.414,15.378,14.324c2.016,0.862,4.113,1.76,6.392,1.831    c0.262-0.139,0.524-0.278,0.785-0.417c0.218,0.123,0.437,0.243,0.661,0.358c-4.939-2.546-8.471-6.68-12.191-10.527    c-2.578-2.667-5.224-5.031-8.777-6.109c-0.748,0.205-1.498,0.383-2.251,0.536C38.124,76.028,38.125,76.03,38.126,76.032z"></path>
        <path d="M45.216,73.857c0.827,0.796,1.334,1.882,2.202,2.632c7.161,6.189,15.519,9.196,24.95,9.14    c1.011-0.006,2.261,0.367,3.231-0.509c-0.123-0.183-0.177-0.364-0.269-0.385c-5.894-1.379-10.922-4.573-16.012-7.634    c-3.753-2.258-7.566-4.341-12.133-4.121c0.061-0.031,0.116-0.07,0.177-0.101c-0.918,0.435-1.853,0.835-2.799,1.206    C44.779,74.004,45.002,73.942,45.216,73.857z"></path>
        <path d="M49.413,71.649c0.518-0.356,1.026-0.724,1.495-1.14c0.079,0.033,0.156,0.065,0.223,0.096    c4.009,1.859,8.207,2.948,12.641,3.05c2.083,0.256,4.146,0.118,6.198-0.281c4.272-0.399,8.231-1.84,12.511-3.636    c-0.711-0.249-1.057-0.504-1.351-0.453c-5.68,0.965-11.234-0.191-16.827-0.885c-3.641-0.452-7.334-1.011-10.861,0.677    c-0.526,0.428-1.049,0.793-1.546,0.456c0.25-0.273,0.492-0.56,0.72-0.858c1.425-1.015,2.771-2.141,4.026-3.363    c0.54-0.307,1.086-0.418,1.837-0.309c8.8,1.266,16.892-0.719,24.288-5.594c1.049-0.691,2.274-1.198,3.052-2.469    c-0.396,0.032-0.696-0.01-0.944,0.084c-4.949,1.894-10.172,2.295-15.364,2.963c-2.917,0.374-6.002,0.41-8.511,2.366    c-0.812,0.99-2.001,1.258-3.11,1.678c1.081-1.165,2.086-2.4,3-3.695c0.142-0.201,0.278-0.404,0.413-0.607    C57.596,63.927,53.449,67.753,49.413,71.649z"></path>
        <path d="M81.586,47.473c-4.016,1.438-8.248,2.331-12.021,4.431c-1.509,1.081-3.017,2.163-4.525,3.244    c-0.448,0.322-0.896,0.636-1.377,0.353c0.064,0.038,0.128,0.064,0.192,0.081c-0.313,0.753-0.638,1.498-0.977,2.236    c-0.003,0.002-0.004,0.005-0.007,0.007c0.366-0.289,0.821-0.494,1.458-0.524c10.456-0.498,18.713-5.463,25.706-12.913    c0.373-0.398,0.319-0.746,0.029-1.272C87.334,44.747,84.636,46.381,81.586,47.473z"></path>
        <path d="M19.653,75.022c-0.006-0.019-0.018-0.034-0.025-0.053c0.058,0.165,0.101,0.337,0.109,0.53    c0.1,2.663,1.467,4.882,2.601,7.161c1.23,2.477,5.35,5.87,7.859,6.426c-3.43-4.042-4.944-8.84-7.41-13.128    c0.507,0.155,1.041,0.242,1.542,0.316c1.347,0.2,2.727,0.264,4.084,0.361c0.014,0.042,0.03,0.082,0.043,0.125    c1.562,5.314,4.666,9.574,8.97,12.969c3.049,2.403,6.386,4.295,10.138,5.271c0.301-0.486,0.136-0.75-0.097-0.898    c-2.65-1.686-4.303-4.312-6.338-6.591c-3.203-3.585-5.223-8.245-9.558-10.807c0.41-0.011,0.819-0.038,1.227-0.065    c-1.269,0.028-2.553-0.03-3.852-0.182C25.993,76.112,22.844,75.355,19.653,75.022z"></path>
        <path d="M65.963,50.034c0.531-0.004,1.097-0.188,1.589-0.394c0.701-0.041,1.615-0.506,2.077-0.723    c0.187-0.087,0.369-0.187,0.547-0.29c10.881-4.444,19.208-14.474,21.525-21.413c-1.35,0.573-1.979,1.769-2.864,2.607    c-4.504,4.259-9.911,7.232-14.95,10.724c-2.795,1.939-5.161,4.225-6.772,7.223c-0.343,0.309-0.703,0.602-1.085,0.862    c0.2-0.135,0.392-0.28,0.58-0.432C66.394,48.814,66.179,49.426,65.963,50.034z"></path>
        <path d="M67.568,41.174c0.15-0.236,0.364-0.451,0.681-0.634c4-2.31,6.901-5.78,9.318-9.594c2.493-3.936,4.079-8.28,4.56-13.027    c-3.546,7.73-11.188,12.461-14.603,20.741c0.006-0.164,0.014-0.328,0.018-0.492c0.009-0.374,0.014-0.763,0.012-1.158    c0.09-1.258,0.115-2.712-0.371-3.889c0.254-0.493,0.625-0.975,1.146-1.45c1.224-1.116,2.05-2.706,2.929-4.157    c3.377-5.576,5.094-11.654,5.326-18.159c0.013-0.39,0.282-0.92-0.323-1.058c-0.475-0.109-0.468,0.302-0.544,0.671    c-1.045,5.017-4.001,9.162-6.249,13.63c-0.834,1.658-1.729,3.308-2.811,5.359c0.472,4.382,0.813,8.782,0.915,13.218L67.568,41.174    z"></path>
        <path opacity="0.8" d="M66.654,27.954c-0.078,0.149-0.155,0.295-0.236,0.447C66.5,28.244,66.574,28.107,66.654,27.954    L66.654,27.954z"></path>
        <path opacity="0.8" d="M44.122,74.262c0.148-0.056,0.293-0.12,0.44-0.177c-0.445,0.164-0.893,0.322-1.344,0.466    C43.519,74.453,43.823,74.367,44.122,74.262z"></path>
        <path opacity="0.8" d="M38.122,76.026C38.123,76.026,38.123,76.026,38.122,76.026c-0.019-0.043-0.038-0.083-0.057-0.122    C38.085,75.943,38.103,75.984,38.122,76.026z"></path>
        <path opacity="0.8" d="M61.306,59.729c0.013-0.019,0.026-0.038,0.038-0.057C61.331,59.692,61.318,59.711,61.306,59.729    C61.305,59.73,61.305,59.729,61.306,59.729z"></path>
        <path opacity="0.8" d="M47.449,72.839c0.187-0.097,0.357-0.218,0.541-0.321c-0.211,0.118-0.413,0.25-0.629,0.36    C47.391,72.865,47.42,72.853,47.449,72.839z"></path>
        <path opacity="0.8" d="M65.96,50.043c0.001-0.003,0.002-0.006,0.003-0.009c-0.102,0.001-0.204,0.006-0.302-0.008    C65.758,50.041,65.859,50.045,65.96,50.043z"></path>
        <path opacity="0.8" d="M32.806,76.639c0.004,0,0.009-0.001,0.013-0.001c-0.008,0.001-0.016,0.001-0.024,0.001    C32.799,76.639,32.802,76.639,32.806,76.639z"></path>
        <path opacity="0.8" d="M40.383,75.488c-0.071-0.022-0.142-0.047-0.214-0.068c0.071,0.02,0.135,0.049,0.205,0.07    C40.377,75.49,40.38,75.489,40.383,75.488z"></path>
        <path opacity="0.8" d="M49.346,71.714c0.022-0.022,0.045-0.043,0.067-0.065c-0.05,0.035-0.095,0.077-0.146,0.111    C49.292,71.744,49.32,71.731,49.346,71.714z"></path>
        <path d="M63.856,55.582c-0.064-0.017-0.128-0.043-0.192-0.081c0.812-1.766,1.465-3.597,1.997-5.475    c0.098,0.015,0.2,0.009,0.302,0.008c0.216-0.609,0.431-1.22,0.648-1.834c-0.188,0.151-0.381,0.296-0.58,0.432    c0.226-0.904,0.43-1.819,0.609-2.744c0.254-1.308,0.468-2.627,0.624-3.951c0.033-0.134,0.071-0.266,0.12-0.394    c0.004-0.01,0.01-0.019,0.014-0.029c0.047-0.117,0.1-0.231,0.169-0.341l0.001-0.002c-0.102-4.436-0.443-8.836-0.915-13.218    c-0.08,0.152-0.154,0.29-0.236,0.447C64.011,20.111,59.89,13.07,58.68,5c-0.672,0.25-0.664,0.616-0.699,0.972    c-0.478,4.887-0.224,9.732,1.126,14.458c1.336,4.679,3.219,9.121,6.084,13.122c0.947,1.322,1.203,2.945,0.822,5.008    c-3.284-5.597-7.527-10.158-10.09-15.84c0.131,7.964,3.467,14.448,9.075,19.894c0.029-0.019,0.058-0.032,0.087-0.045    c0.066,0.195,0.128,0.39,0.195,0.584c0.007,0.03,0.013,0.061,0.021,0.091c0.004,0.024,0.009,0.048,0.013,0.073    c-0.025,0.121-0.048,0.242-0.075,0.363c-0.73,3.409-1.474,6.796-2.974,9.963c-0.024,0.051-0.05,0.101-0.074,0.153    c-0.413-2.967-1.452-5.691-3.08-8.309c-1.952-3.141-3.561-6.507-5.163-9.849c-0.82-1.71-0.965-3.707-1.98-5.639    c-1.352,8.205,0.667,17.911,7.815,25.756c0.045,0.106,0.098,0.21,0.161,0.312c0.096,0.159,0.321,0.533,0.56,0.695    c0.006,0.008,0.01,0.017,0.016,0.026c-1.103,1.748-2.357,3.407-3.643,5.013c-0.949,1.184-1.929,2.343-2.904,3.505    c-0.038,0.046-0.078,0.089-0.117,0.135c0.087-2.677,0.27-5.342-0.747-7.99c-1.553-4.042-2.811-8.197-4.215-12.297    c-0.786-2.297-0.716-4.771-1.513-7.092c-1.421,4.841-1.529,9.732-0.822,14.658c0.755,5.265,2.917,9.933,5.96,14.212    c-0.465,0.517-0.917,1.045-1.313,1.612c-2.285,1.429-4.728,2.608-7.269,3.556c0.983-3.245,1.509-6.529,0.801-9.93    c-0.692-3.328-1.258-6.684-2.047-9.987c-0.742-3.098-0.363-6.253-0.613-9.421c-0.256,0.11-0.459,0.132-0.494,0.22    c-3.797,9.583-4.048,19.086,0.723,28.446c0.191,0.374,0.436,0.728,0.535,1.065c-1.144,0.394-2.306,0.741-3.48,1.05    c-0.681,0.133-1.359,0.294-2.019,0.401c-1.231,0.199-2.469,0.323-3.711,0.4c0.042-0.201,0.132-0.433,0.244-0.688    c1.096-2.474,1.654-5.008,1.652-7.791c-0.008-5.621-0.745-11.297,0.751-16.86c0.032-0.118-0.22-0.312-0.38-0.524    c-4.34,7.011-5.877,14.51-4.636,22.576c0.174,1.134,1.247,2.363,0.94,3.358c-1.54,0.057-3.082,0.022-4.621,0    c-0.766-0.011-1.529-0.069-2.289-0.164c-0.311-0.04-0.622-0.107-0.933-0.178c-0.2-0.147-0.434-0.256-0.688-0.337    c0.102-0.256,0.312-0.577,0.62-0.972c1.041-1.334,1.489-3.005,1.886-4.679c0.636-2.684,1.086-5.421,2.121-8.009    c0.277-0.693,1.157-1.292,0.46-2.416c-3.205,3.728-5.548,7.722-6.152,12.601c-0.252,2.034-0.364,2.87-1.083,3.188    c-0.332-0.021-0.649-0.045-0.932-0.09c-1.552-0.249-3.079-0.712-4.578-1.172c-1.353-0.414-2.699-0.852-4.043-1.291    c-1.165-0.381-2.503-0.77-3.519-1.471c-0.048-0.033-0.089,0.031-0.116,0.123c-0.005-0.002-0.01-0.004-0.015-0.006    c0.005,0.003,0.009,0.006,0.014,0.009c-0.04,0.135-0.051,0.332-0.016,0.386c0.591,0.878,1.864,1.201,2.798,1.584    c1.368,0.56,2.788,1.037,4.192,1.504c0.015,0.005,0.03,0.011,0.044,0.015c0.038,0.012,0.075,0.025,0.113,0.038    c1.203,0.399,2.421,0.763,3.653,1.063c0.106,0.118,0.199,0.243,0.285,0.373c0.018,0.028,0.035,0.058,0.052,0.087    c0.069,0.115,0.126,0.237,0.171,0.365c0.007,0.019,0.019,0.034,0.025,0.053c3.191,0.333,6.341,1.09,9.291,1.435    c1.299,0.152,2.583,0.209,3.852,0.182c0.008,0,0.016-0.001,0.024-0.001c0.838-0.056,1.672-0.145,2.507-0.26    c0.094-0.013,0.189-0.028,0.283-0.042c0.818-0.119,1.636-0.259,2.456-0.432c0.019,0.038,0.038,0.079,0.057,0.122    c0.753-0.153,1.503-0.331,2.251-0.536c-0.07-0.021-0.134-0.05-0.205-0.07c0.74-0.182,1.487-0.389,2.232-0.609    c0.274-0.081,0.545-0.173,0.817-0.261c0.452-0.145,0.899-0.302,1.344-0.466c0.947-0.371,1.881-0.77,2.799-1.206    c0.216-0.111,0.417-0.242,0.629-0.36c0.433-0.242,0.867-0.484,1.277-0.758c0.051-0.034,0.095-0.076,0.146-0.111    c4.036-3.897,8.183-7.722,11.892-11.919c0.013-0.019,0.026-0.038,0.039-0.057c0.126-0.139,0.241-0.288,0.354-0.44    c0.093-0.126,0.185-0.254,0.277-0.382c0.037-0.052,0.076-0.104,0.113-0.156c0.1-0.138,0.205-0.272,0.314-0.401    c0.019-0.022,0.036-0.046,0.055-0.068c0.127-0.145,0.263-0.28,0.415-0.401c0.003-0.002,0.004-0.005,0.007-0.007    C63.218,57.08,63.543,56.334,63.856,55.582z"></path>
        <path opacity="0.8" d="M63.856,55.582c-0.064-0.017-0.128-0.043-0.192-0.081c0.812-1.766,1.465-3.597,1.997-5.475    c0.098,0.015,0.2,0.009,0.302,0.008c0.216-0.609,0.431-1.22,0.648-1.834c-0.188,0.151-0.381,0.296-0.58,0.432    c0.226-0.904,0.43-1.819,0.609-2.744c0.254-1.308,0.468-2.627,0.624-3.951c0.033-0.134,0.071-0.266,0.12-0.394    c0.004-0.01,0.01-0.019,0.014-0.029c0.047-0.117,0.1-0.231,0.169-0.341l0.001-0.002c-0.102-4.436-0.443-8.836-0.915-13.218    c-0.08,0.152-0.154,0.29-0.236,0.447C64.011,20.111,59.89,13.07,58.68,5c-0.672,0.25-0.664,0.616-0.699,0.972    c-0.478,4.887-0.224,9.732,1.126,14.458c1.336,4.679,3.219,9.121,6.084,13.122c0.947,1.322,1.203,2.945,0.822,5.008    c-3.284-5.597-7.527-10.158-10.09-15.84c0.131,7.964,3.467,14.448,9.075,19.894c0.029-0.019,0.058-0.032,0.087-0.045    c0.066,0.195,0.128,0.39,0.195,0.584c0.007,0.03,0.013,0.061,0.021,0.091c0.004,0.024,0.009,0.048,0.013,0.073    c-0.025,0.121-0.048,0.242-0.075,0.363c-0.73,3.409-1.474,6.796-2.974,9.963c-0.024,0.051-0.05,0.101-0.074,0.153    c-0.413-2.967-1.452-5.691-3.08-8.309c-1.952-3.141-3.561-6.507-5.163-9.849c-0.82-1.71-0.965-3.707-1.98-5.639    c-1.352,8.205,0.667,17.911,7.815,25.756c0.045,0.106,0.098,0.21,0.161,0.312c0.096,0.159,0.321,0.533,0.56,0.695    c0.006,0.008,0.01,0.017,0.016,0.026c-1.103,1.748-2.357,3.407-3.643,5.013c-0.949,1.184-1.929,2.343-2.904,3.505    c-0.038,0.046-0.078,0.089-0.117,0.135c0.087-2.677,0.27-5.342-0.747-7.99c-1.553-4.042-2.811-8.197-4.215-12.297    c-0.786-2.297-0.716-4.771-1.513-7.092c-1.421,4.841-1.529,9.732-0.822,14.658c0.755,5.265,2.917,9.933,5.96,14.212    c-0.465,0.517-0.917,1.045-1.313,1.612c-2.285,1.429-4.728,2.608-7.269,3.556c0.983-3.245,1.509-6.529,0.801-9.93    c-0.692-3.328-1.258-6.684-2.047-9.987c-0.742-3.098-0.363-6.253-0.613-9.421c-0.256,0.11-0.459,0.132-0.494,0.22    c-3.797,9.583-4.048,19.086,0.723,28.446c0.191,0.374,0.436,0.728,0.535,1.065c-1.144,0.394-2.306,0.741-3.48,1.05    c-0.681,0.133-1.359,0.294-2.019,0.401c-1.231,0.199-2.469,0.323-3.711,0.4c0.042-0.201,0.132-0.433,0.244-0.688    c1.096-2.474,1.654-5.008,1.652-7.791c-0.008-5.621-0.745-11.297,0.751-16.86c0.032-0.118-0.22-0.312-0.38-0.524    c-4.34,7.011-5.877,14.51-4.636,22.576c0.174,1.134,1.247,2.363,0.94,3.358c-1.54,0.057-3.082,0.022-4.621,0    c-0.766-0.011-1.529-0.069-2.289-0.164c-0.311-0.04-0.622-0.107-0.933-0.178c-0.2-0.147-0.434-0.256-0.688-0.337    c0.102-0.256,0.312-0.577,0.62-0.972c1.041-1.334,1.489-3.005,1.886-4.679c0.636-2.684,1.086-5.421,2.121-8.009    c0.277-0.693,1.157-1.292,0.46-2.416c-3.205,3.728-5.548,7.722-6.152,12.601c-0.252,2.034-0.364,2.87-1.083,3.188    c-0.332-0.021-0.649-0.045-0.932-0.09c-1.552-0.249-3.079-0.712-4.578-1.172c-1.353-0.414-2.699-0.852-4.043-1.291    c-1.165-0.381-2.503-0.77-3.519-1.471c-0.048-0.033-0.089,0.031-0.116,0.123c-0.005-0.002-0.01-0.004-0.015-0.006    c0.005,0.003,0.009,0.006,0.014,0.009c-0.04,0.135-0.051,0.332-0.016,0.386c0.591,0.878,1.864,1.201,2.798,1.584    c1.368,0.56,2.788,1.037,4.192,1.504c0.015,0.005,0.03,0.011,0.044,0.015c0.038,0.012,0.075,0.025,0.113,0.038    c1.203,0.399,2.421,0.763,3.653,1.063c0.106,0.118,0.199,0.243,0.285,0.373c0.018,0.028,0.035,0.058,0.052,0.087    c0.069,0.115,0.126,0.237,0.171,0.365c0.007,0.019,0.019,0.034,0.025,0.053c3.191,0.333,6.341,1.09,9.291,1.435    c1.299,0.152,2.583,0.209,3.852,0.182c0.008,0,0.016-0.001,0.024-0.001c0.838-0.056,1.672-0.145,2.507-0.26    c0.094-0.013,0.189-0.028,0.283-0.042c0.818-0.119,1.636-0.259,2.456-0.432c0.019,0.038,0.038,0.079,0.057,0.122    c0.753-0.153,1.503-0.331,2.251-0.536c-0.07-0.021-0.134-0.05-0.205-0.07c0.74-0.182,1.487-0.389,2.232-0.609    c0.274-0.081,0.545-0.173,0.817-0.261c0.452-0.145,0.899-0.302,1.344-0.466c0.947-0.371,1.881-0.77,2.799-1.206    c0.216-0.111,0.417-0.242,0.629-0.36c0.433-0.242,0.867-0.484,1.277-0.758c0.051-0.034,0.095-0.076,0.146-0.111    c4.036-3.897,8.183-7.722,11.892-11.919c0.013-0.019,0.026-0.038,0.039-0.057c0.126-0.139,0.241-0.288,0.354-0.44    c0.093-0.126,0.185-0.254,0.277-0.382c0.037-0.052,0.076-0.104,0.113-0.156c0.1-0.138,0.205-0.272,0.314-0.401    c0.019-0.022,0.036-0.046,0.055-0.068c0.127-0.145,0.263-0.28,0.415-0.401c0.003-0.002,0.004-0.005,0.007-0.007    C63.218,57.08,63.543,56.334,63.856,55.582z"></path>
        <path opacity="0.4" d="M59.876,92.197c0.079,0.003,0.159-0.002,0.238-0.001c-0.073,0-0.145-0.007-0.218-0.01    C59.889,92.19,59.882,92.194,59.876,92.197z"></path>
        <path d="M59.896,92.187c0.073,0.002,0.145,0.009,0.218,0.01c0.098,0.001,0.197,0.001,0.296-0.001    c0.308-0.008,0.617-0.025,0.932-0.068c-0.224-0.115-0.443-0.235-0.661-0.358C60.42,91.909,60.158,92.048,59.896,92.187z"></path>
        <path opacity="0.4" d="M59.896,92.187c0.073,0.002,0.145,0.009,0.218,0.01c0.098,0.001,0.197,0.001,0.296-0.001    c0.308-0.008,0.617-0.025,0.932-0.068c-0.224-0.115-0.443-0.235-0.661-0.358C60.42,91.909,60.158,92.048,59.896,92.187z"></path>
      </g>
    </g>
  </g>
</svg>
